<?xml version="1.0" encoding="UTF-8"?>
<svg width="76.674316" height="90.251594" viewBox="0 0 76.674316 90.251594"
     xmlns="http://www.w3.org/2000/svg">
  <defs>
    <clipPath id="face-clip"><path d="m 24.517273,0.14302202 h 29.52319 L 54.197441,9.5 c 10,0.5 21.296537,8.77912 21.296537,12.77912 C 76.156978,36.27912 76,65 75.337,79 c 0,4.5 -7.546484,4.843022 -17.046484,4.843022 v 6.252 L 19.168374,90.252 V 84 C 9.6683743,84 2.2788679,80.988352 2.2788679,76.488352 c -0.663,-14 -0.819978,-38.953409 -0.156978,-52.953409 0,-4 12.3953831,-13.691921 22.3953831,-14.191921 z"/></clipPath>
  </defs>
  <g clip-path="url(#face-clip)">
    <rect x="0.0000" y="0.0000" width="5.4767" height="5.4767" fill="#CC8E69"/>
    <rect x="5.4767" y="0.0000" width="5.4767" height="5.4767" fill="#FE8A18"/>
    <rect x="10.9535" y="0.0000" width="5.4767" height="5.4767" fill="#C91A09"/>
    <rect x="16.4302" y="0.0000" width="5.4767" height="5.4767" fill="#F6D7B3"/>
    <rect x="21.9069" y="0.0000" width="5.4767" height="5.4767" fill="#4B9F4A"/>
    <rect x="27.3837" y="0.0000" width="5.4767" height="5.4767" fill="#BBE90B"/>
    <rect x="32.8604" y="0.0000" width="5.4767" height="5.4767" fill="#BBE90B"/>
    <rect x="38.3372" y="0.0000" width="5.4767" height="5.4767" fill="#F2CD37"/>
    <rect x="43.8139" y="0.0000" width="5.4767" height="5.4767" fill="#F6D7B3"/>
    <rect x="49.2906" y="0.0000" width="5.4767" height="5.4767" fill="#FE8A18"/>
    <rect x="54.7674" y="0.0000" width="5.4767" height="5.4767" fill="#CC8E69"/>
    <rect x="60.2441" y="0.0000" width="5.4767" height="5.4767" fill="#F6D7B3"/>
    <rect x="65.7208" y="0.0000" width="5.4767" height="5.4767" fill="#81007B"/>
    <rect x="71.1976" y="0.0000" width="5.4767" height="5.4767" fill="#FE8A18"/>
    <rect x="0.0000" y="5.4767" width="5.4767" height="5.4767" fill="#FC97AC"/>
    <rect x="5.4767" y="5.4767" width="5.4767" height="5.4767" fill="#0055BF"/>
    <rect x="10.9535" y="5.4767" width="5.4767" height="5.4767" fill="#C91A09"/>
    <rect x="16.4302" y="5.4767" width="5.4767" height="5.4767" fill="#C91A09"/>
    <rect x="21.9069" y="5.4767" width="5.4767" height="5.4767" fill="#FE8A18"/>
    <rect x="27.3837" y="5.4767" width="5.4767" height="5.4767" fill="#BBE90B"/>
    <rect x="32.8604" y="5.4767" width="5.4767" height="5.4767" fill="#BBE90B"/>
    <rect x="38.3372" y="5.4767" width="5.4767" height="5.4767" fill="#81007B"/>
    <rect x="43.8139" y="5.4767" width="5.4767" height="5.4767" fill="#FC97AC"/>
    <rect x="49.2906" y="5.4767" width="5.4767" height="5.4767" fill="#C91A09"/>
    <rect x="54.7674" y="5.4767" width="5.4767" height="5.4767" fill="#81007B"/>
    <rect x="60.2441" y="5.4767" width="5.4767" height="5.4767" fill="#BBE90B"/>
    <rect x="65.7208" y="5.4767" width="5.4767" height="5.4767" fill="#F6D7B3"/>
    <rect x="71.1976" y="5.4767" width="5.4767" height="5.4767" fill="#CC8E69"/>
    <rect x="0.0000" y="10.9535" width="5.4767" height="5.4767" fill="#F6D7B3"/>
    <rect x="5.4767" y="10.9535" width="5.4767" height="5.4767" fill="#81007B"/>
    <rect x="10.9535" y="10.9535" width="5.4767" height="5.4767" fill="#0055BF"/>
    <rect x="16.4302" y="10.9535" width="5.4767" height="5.4767" fill="#BBE90B"/>
    <rect x="21.9069" y="10.9535" width="5.4767" height="5.4767" fill="#5A93DB"/>
    <rect x="27.3837" y="10.9535" width="5.4767" height="5.4767" fill="#FC97AC"/>
    <rect x="32.8604" y="10.9535" width="5.4767" height="5.4767" fill="#4B9F4A"/>
    <rect x="38.3372" y="10.9535" width="5.4767" height="5.4767" fill="#C91A09"/>
    <rect x="43.8139" y="10.9535" width="5.4767" height="5.4767" fill="#F2CD37"/>
    <rect x="49.2906" y="10.9535" width="5.4767" height="5.4767" fill="#F6D7B3"/>
    <rect x="54.7674" y="10.9535" width="5.4767" height="5.4767" fill="#0055BF"/>
    <rect x="60.2441" y="10.9535" width="5.4767" height="5.4767" fill="#008F9B"/>
    <rect x="65.7208" y="10.9535" width="5.4767" height="5.4767" fill="#4B9F4A"/>
    <rect x="71.1976" y="10.9535" width="5.4767" height="5.4767" fill="#F2CD37"/>
    <rect x="0.0000" y="16.4302" width="5.4767" height="5.4767" fill="#BBE90B"/>
    <rect x="5.4767" y="16.4302" width="5.4767" height="5.4767" fill="#008F9B"/>
    <rect x="10.9535" y="16.4302" width="5.4767" height="5.4767" fill="#FE8A18"/>
    <rect x="16.4302" y="16.4302" width="5.4767" height="5.4767" fill="#FE8A18"/>
    <rect x="21.9069" y="16.4302" width="5.4767" height="5.4767" fill="#0055BF"/>
    <rect x="27.3837" y="16.4302" width="5.4767" height="5.4767" fill="#FE8A18"/>
    <rect x="32.8604" y="16.4302" width="5.4767" height="5.4767" fill="#008F9B"/>
    <rect x="38.3372" y="16.4302" width="5.4767" height="5.4767" fill="#008F9B"/>
    <rect x="43.8139" y="16.4302" width="5.4767" height="5.4767" fill="#FC97AC"/>
    <rect x="49.2906" y="16.4302" width="5.4767" height="5.4767" fill="#4B9F4A"/>
    <rect x="54.7674" y="16.4302" width="5.4767" height="5.4767" fill="#C91A09"/>
    <rect x="60.2441" y="16.4302" width="5.4767" height="5.4767" fill="#F6D7B3"/>
    <rect x="65.7208" y="16.4302" width="5.4767" height="5.4767" fill="#5A93DB"/>
    <rect x="71.1976" y="16.4302" width="5.4767" height="5.4767" fill="#81007B"/>
    <rect x="0.0000" y="21.9069" width="5.4767" height="5.4767" fill="#FE8A18"/>
    <rect x="5.4767" y="21.9069" width="5.4767" height="5.4767" fill="#0055BF"/>
    <rect x="10.9535" y="21.9069" width="5.4767" height="5.4767" fill="#FE8A18"/>
    <rect x="16.4302" y="21.9069" width="5.4767" height="5.4767" fill="#81007B"/>
    <rect x="21.9069" y="21.9069" width="5.4767" height="5.4767" fill="#4B9F4A"/>
    <rect x="27.3837" y="21.9069" width="5.4767" height="5.4767" fill="#CC8E69"/>
    <rect x="32.8604" y="21.9069" width="5.4767" height="5.4767" fill="#FC97AC"/>
    <rect x="38.3372" y="21.9069" width="5.4767" height="5.4767" fill="#008F9B"/>
    <rect x="43.8139" y="21.9069" width="5.4767" height="5.4767" fill="#FC97AC"/>
    <rect x="49.2906" y="21.9069" width="5.4767" height="5.4767" fill="#BBE90B"/>
    <rect x="54.7674" y="21.9069" width="5.4767" height="5.4767" fill="#F6D7B3"/>
    <rect x="60.2441" y="21.9069" width="5.4767" height="5.4767" fill="#FE8A18"/>
    <rect x="65.7208" y="21.9069" width="5.4767" height="5.4767" fill="#C91A09"/>
    <rect x="71.1976" y="21.9069" width="5.4767" height="5.4767" fill="#CC8E69"/>
    <rect x="0.0000" y="27.3837" width="5.4767" height="5.4767" fill="#BBE90B"/>
    <rect x="5.4767" y="27.3837" width="5.4767" height="5.4767" fill="#4B9F4A"/>
    <rect x="10.9535" y="27.3837" width="5.4767" height="5.4767" fill="#FE8A18"/>
    <rect x="16.4302" y="27.3837" width="5.4767" height="5.4767" fill="#BBE90B"/>
    <rect x="21.9069" y="27.3837" width="5.4767" height="5.4767" fill="#FE8A18"/>
    <rect x="27.3837" y="27.3837" width="5.4767" height="5.4767" fill="#0055BF"/>
    <rect x="32.8604" y="27.3837" width="5.4767" height="5.4767" fill="#4B9F4A"/>
    <rect x="38.3372" y="27.3837" width="5.4767" height="5.4767" fill="#5A93DB"/>
    <rect x="43.8139" y="27.3837" width="5.4767" height="5.4767" fill="#CC8E69"/>
    <rect x="49.2906" y="27.3837" width="5.4767" height="5.4767" fill="#008F9B"/>
    <rect x="54.7674" y="27.3837" width="5.4767" height="5.4767" fill="#F2CD37"/>
    <rect x="60.2441" y="27.3837" width="5.4767" height="5.4767" fill="#008F9B"/>
    <rect x="65.7208" y="27.3837" width="5.4767" height="5.4767" fill="#008F9B"/>
    <rect x="71.1976" y="27.3837" width="5.4767" height="5.4767" fill="#BBE90B"/>
    <rect x="0.0000" y="32.8604" width="5.4767" height="5.4767" fill="#CC8E69"/>
    <rect x="5.4767" y="32.8604" width="5.4767" height="5.4767" fill="#4B9F4A"/>
    <rect x="10.9535" y="32.8604" width="5.4767" height="5.4767" fill="#F6D7B3"/>
    <rect x="16.4302" y="32.8604" width="5.4767" height="5.4767" fill="#CC8E69"/>
    <rect x="21.9069" y="32.8604" width="5.4767" height="5.4767" fill="#CC8E69"/>
    <rect x="27.3837" y="32.8604" width="5.4767" height="5.4767" fill="#FE8A18"/>
    <rect x="32.8604" y="32.8604" width="5.4767" height="5.4767" fill="#FC97AC"/>
    <rect x="38.3372" y="32.8604" width="5.4767" height="5.4767" fill="#CC8E69"/>
    <rect x="43.8139" y="32.8604" width="5.4767" height="5.4767" fill="#F2CD37"/>
    <rect x="49.2906" y="32.8604" width="5.4767" height="5.4767" fill="#81007B"/>
    <rect x="54.7674" y="32.8604" width="5.4767" height="5.4767" fill="#F6D7B3"/>
    <rect x="60.2441" y="32.8604" width="5.4767" height="5.4767" fill="#BBE90B"/>
    <rect x="65.7208" y="32.8604" width="5.4767" height="5.4767" fill="#F2CD37"/>
    <rect x="71.1976" y="32.8604" width="5.4767" height="5.4767" fill="#5A93DB"/>
    <rect x="0.0000" y="38.3372" width="5.4767" height="5.4767" fill="#0055BF"/>
    <rect x="5.4767" y="38.3372" width="5.4767" height="5.4767" fill="#4B9F4A"/>
    <rect x="10.9535" y="38.3372" width="5.4767" height="5.4767" fill="#CC8E69"/>
    <rect x="16.4302" y="38.3372" width="5.4767" height="5.4767" fill="#F6D7B3"/>
    <rect x="21.9069" y="38.3372" width="5.4767" height="5.4767" fill="#81007B"/>
    <rect x="27.3837" y="38.3372" width="5.4767" height="5.4767" fill="#BBE90B"/>
    <rect x="32.8604" y="38.3372" width="5.4767" height="5.4767" fill="#CC8E69"/>
    <rect x="38.3372" y="38.3372" width="5.4767" height="5.4767" fill="#008F9B"/>
    <rect x="43.8139" y="38.3372" width="5.4767" height="5.4767" fill="#C91A09"/>
    <rect x="49.2906" y="38.3372" width="5.4767" height="5.4767" fill="#BBE90B"/>
    <rect x="54.7674" y="38.3372" width="5.4767" height="5.4767" fill="#C91A09"/>
    <rect x="60.2441" y="38.3372" width="5.4767" height="5.4767" fill="#008F9B"/>
    <rect x="65.7208" y="38.3372" width="5.4767" height="5.4767" fill="#0055BF"/>
    <rect x="71.1976" y="38.3372" width="5.4767" height="5.4767" fill="#4B9F4A"/>
    <rect x="0.0000" y="43.8139" width="5.4767" height="5.4767" fill="#FE8A18"/>
    <rect x="5.4767" y="43.8139" width="5.4767" height="5.4767" fill="#BBE90B"/>
    <rect x="10.9535" y="43.8139" width="5.4767" height="5.4767" fill="#FC97AC"/>
    <rect x="16.4302" y="43.8139" width="5.4767" height="5.4767" fill="#F6D7B3"/>
    <rect x="21.9069" y="43.8139" width="5.4767" height="5.4767" fill="#008F9B"/>
    <rect x="27.3837" y="43.8139" width="5.4767" height="5.4767" fill="#BBE90B"/>
    <rect x="32.8604" y="43.8139" width="5.4767" height="5.4767" fill="#CC8E69"/>
    <rect x="38.3372" y="43.8139" width="5.4767" height="5.4767" fill="#5A93DB"/>
    <rect x="43.8139" y="43.8139" width="5.4767" height="5.4767" fill="#0055BF"/>
    <rect x="49.2906" y="43.8139" width="5.4767" height="5.4767" fill="#CC8E69"/>
    <rect x="54.7674" y="43.8139" width="5.4767" height="5.4767" fill="#5A93DB"/>
    <rect x="60.2441" y="43.8139" width="5.4767" height="5.4767" fill="#F2CD37"/>
    <rect x="65.7208" y="43.8139" width="5.4767" height="5.4767" fill="#4B9F4A"/>
    <rect x="71.1976" y="43.8139" width="5.4767" height="5.4767" fill="#F2CD37"/>
    <rect x="0.0000" y="49.2906" width="5.4767" height="5.4767" fill="#BBE90B"/>
    <rect x="5.4767" y="49.2906" width="5.4767" height="5.4767" fill="#F6D7B3"/>
    <rect x="10.9535" y="49.2906" width="5.4767" height="5.4767" fill="#81007B"/>
    <rect x="16.4302" y="49.2906" width="5.4767" height="5.4767" fill="#81007B"/>
    <rect x="21.9069" y="49.2906" width="5.4767" height="5.4767" fill="#4B9F4A"/>
    <rect x="27.3837" y="49.2906" width="5.4767" height="5.4767" fill="#F6D7B3"/>
    <rect x="32.8604" y="49.2906" width="5.4767" height="5.4767" fill="#FC97AC"/>
    <rect x="38.3372" y="49.2906" width="5.4767" height="5.4767" fill="#0055BF"/>
    <rect x="43.8139" y="49.2906" width="5.4767" height="5.4767" fill="#FC97AC"/>
    <rect x="49.2906" y="49.2906" width="5.4767" height="5.4767" fill="#0055BF"/>
    <rect x="54.7674" y="49.2906" width="5.4767" height="5.4767" fill="#008F9B"/>
    <rect x="60.2441" y="49.2906" width="5.4767" height="5.4767" fill="#BBE90B"/>
    <rect x="65.7208" y="49.2906" width="5.4767" height="5.4767" fill="#F2CD37"/>
    <rect x="71.1976" y="49.2906" width="5.4767" height="5.4767" fill="#81007B"/>
    <rect x="0.0000" y="54.7674" width="5.4767" height="5.4767" fill="#5A93DB"/>
    <rect x="5.4767" y="54.7674" width="5.4767" height="5.4767" fill="#FE8A18"/>
    <rect x="10.9535" y="54.7674" width="5.4767" height="5.4767" fill="#C91A09"/>
    <rect x="16.4302" y="54.7674" width="5.4767" height="5.4767" fill="#FE8A18"/>
    <rect x="21.9069" y="54.7674" width="5.4767" height="5.4767" fill="#F2CD37"/>
    <rect x="27.3837" y="54.7674" width="5.4767" height="5.4767" fill="#CC8E69"/>
    <rect x="32.8604" y="54.7674" width="5.4767" height="5.4767" fill="#F2CD37"/>
    <rect x="38.3372" y="54.7674" width="5.4767" height="5.4767" fill="#CC8E69"/>
    <rect x="43.8139" y="54.7674" width="5.4767" height="5.4767" fill="#0055BF"/>
    <rect x="49.2906" y="54.7674" width="5.4767" height="5.4767" fill="#FC97AC"/>
    <rect x="54.7674" y="54.7674" width="5.4767" height="5.4767" fill="#FE8A18"/>
    <rect x="60.2441" y="54.7674" width="5.4767" height="5.4767" fill="#0055BF"/>
    <rect x="65.7208" y="54.7674" width="5.4767" height="5.4767" fill="#0055BF"/>
    <rect x="71.1976" y="54.7674" width="5.4767" height="5.4767" fill="#FC97AC"/>
    <rect x="0.0000" y="60.2441" width="5.4767" height="5.4767" fill="#5A93DB"/>
    <rect x="5.4767" y="60.2441" width="5.4767" height="5.4767" fill="#81007B"/>
    <rect x="10.9535" y="60.2441" width="5.4767" height="5.4767" fill="#4B9F4A"/>
    <rect x="16.4302" y="60.2441" width="5.4767" height="5.4767" fill="#81007B"/>
    <rect x="21.9069" y="60.2441" width="5.4767" height="5.4767" fill="#C91A09"/>
    <rect x="27.3837" y="60.2441" width="5.4767" height="5.4767" fill="#CC8E69"/>
    <rect x="32.8604" y="60.2441" width="5.4767" height="5.4767" fill="#F6D7B3"/>
    <rect x="38.3372" y="60.2441" width="5.4767" height="5.4767" fill="#FE8A18"/>
    <rect x="43.8139" y="60.2441" width="5.4767" height="5.4767" fill="#CC8E69"/>
    <rect x="49.2906" y="60.2441" width="5.4767" height="5.4767" fill="#81007B"/>
    <rect x="54.7674" y="60.2441" width="5.4767" height="5.4767" fill="#4B9F4A"/>
    <rect x="60.2441" y="60.2441" width="5.4767" height="5.4767" fill="#CC8E69"/>
    <rect x="65.7208" y="60.2441" width="5.4767" height="5.4767" fill="#008F9B"/>
    <rect x="71.1976" y="60.2441" width="5.4767" height="5.4767" fill="#FE8A18"/>
    <rect x="0.0000" y="65.7208" width="5.4767" height="5.4767" fill="#4B9F4A"/>
    <rect x="5.4767" y="65.7208" width="5.4767" height="5.4767" fill="#0055BF"/>
    <rect x="10.9535" y="65.7208" width="5.4767" height="5.4767" fill="#F2CD37"/>
    <rect x="16.4302" y="65.7208" width="5.4767" height="5.4767" fill="#5A93DB"/>
    <rect x="21.9069" y="65.7208" width="5.4767" height="5.4767" fill="#C91A09"/>
    <rect x="27.3837" y="65.7208" width="5.4767" height="5.4767" fill="#F6D7B3"/>
    <rect x="32.8604" y="65.7208" width="5.4767" height="5.4767" fill="#F6D7B3"/>
    <rect x="38.3372" y="65.7208" width="5.4767" height="5.4767" fill="#4B9F4A"/>
    <rect x="43.8139" y="65.7208" width="5.4767" height="5.4767" fill="#81007B"/>
    <rect x="49.2906" y="65.7208" width="5.4767" height="5.4767" fill="#F2CD37"/>
    <rect x="54.7674" y="65.7208" width="5.4767" height="5.4767" fill="#81007B"/>
    <rect x="60.2441" y="65.7208" width="5.4767" height="5.4767" fill="#FE8A18"/>
    <rect x="65.7208" y="65.7208" width="5.4767" height="5.4767" fill="#CC8E69"/>
    <rect x="71.1976" y="65.7208" width="5.4767" height="5.4767" fill="#4B9F4A"/>
    <rect x="0.0000" y="71.1976" width="5.4767" height="5.4767" fill="#CC8E69"/>
    <rect x="5.4767" y="71.1976" width="5.4767" height="5.4767" fill="#81007B"/>
    <rect x="10.9535" y="71.1976" width="5.4767" height="5.4767" fill="#FC97AC"/>
    <rect x="16.4302" y="71.1976" width="5.4767" height="5.4767" fill="#BBE90B"/>
    <rect x="21.9069" y="71.1976" width="5.4767" height="5.4767" fill="#F2CD37"/>
    <rect x="27.3837" y="71.1976" width="5.4767" height="5.4767" fill="#008F9B"/>
    <rect x="32.8604" y="71.1976" width="5.4767" height="5.4767" fill="#F2CD37"/>
    <rect x="38.3372" y="71.1976" width="5.4767" height="5.4767" fill="#81007B"/>
    <rect x="43.8139" y="71.1976" width="5.4767" height="5.4767" fill="#81007B"/>
    <rect x="49.2906" y="71.1976" width="5.4767" height="5.4767" fill="#C91A09"/>
    <rect x="54.7674" y="71.1976" width="5.4767" height="5.4767" fill="#FC97AC"/>
    <rect x="60.2441" y="71.1976" width="5.4767" height="5.4767" fill="#008F9B"/>
    <rect x="65.7208" y="71.1976" width="5.4767" height="5.4767" fill="#5A93DB"/>
    <rect x="71.1976" y="71.1976" width="5.4767" height="5.4767" fill="#C91A09"/>
    <rect x="0.0000" y="76.6743" width="5.4767" height="5.4767" fill="#FE8A18"/>
    <rect x="5.4767" y="76.6743" width="5.4767" height="5.4767" fill="#008F9B"/>
    <rect x="10.9535" y="76.6743" width="5.4767" height="5.4767" fill="#4B9F4A"/>
    <rect x="16.4302" y="76.6743" width="5.4767" height="5.4767" fill="#BBE90B"/>
    <rect x="21.9069" y="76.6743" width="5.4767" height="5.4767" fill="#C91A09"/>
    <rect x="27.3837" y="76.6743" width="5.4767" height="5.4767" fill="#BBE90B"/>
    <rect x="32.8604" y="76.6743" width="5.4767" height="5.4767" fill="#FC97AC"/>
    <rect x="38.3372" y="76.6743" width="5.4767" height="5.4767" fill="#FE8A18"/>
    <rect x="43.8139" y="76.6743" width="5.4767" height="5.4767" fill="#FE8A18"/>
    <rect x="49.2906" y="76.6743" width="5.4767" height="5.4767" fill="#F6D7B3"/>
    <rect x="54.7674" y="76.6743" width="5.4767" height="5.4767" fill="#5A93DB"/>
    <rect x="60.2441" y="76.6743" width="5.4767" height="5.4767" fill="#FE8A18"/>
    <rect x="65.7208" y="76.6743" width="5.4767" height="5.4767" fill="#81007B"/>
    <rect x="71.1976" y="76.6743" width="5.4767" height="5.4767" fill="#F2CD37"/>
    <rect x="0.0000" y="82.1511" width="5.4767" height="5.4767" fill="#F2CD37"/>
    <rect x="5.4767" y="82.1511" width="5.4767" height="5.4767" fill="#CC8E69"/>
    <rect x="10.9535" y="82.1511" width="5.4767" height="5.4767" fill="#5A93DB"/>
    <rect x="16.4302" y="82.1511" width="5.4767" height="5.4767" fill="#81007B"/>
    <rect x="21.9069" y="82.1511" width="5.4767" height="5.4767" fill="#F2CD37"/>
    <rect x="27.3837" y="82.1511" width="5.4767" height="5.4767" fill="#4B9F4A"/>
    <rect x="32.8604" y="82.1511" width="5.4767" height="5.4767" fill="#81007B"/>
    <rect x="38.3372" y="82.1511" width="5.4767" height="5.4767" fill="#FC97AC"/>
    <rect x="43.8139" y="82.1511" width="5.4767" height="5.4767" fill="#0055BF"/>
    <rect x="49.2906" y="82.1511" width="5.4767" height="5.4767" fill="#BBE90B"/>
    <rect x="54.7674" y="82.1511" width="5.4767" height="5.4767" fill="#81007B"/>
    <rect x="60.2441" y="82.1511" width="5.4767" height="5.4767" fill="#F6D7B3"/>
    <rect x="65.7208" y="82.1511" width="5.4767" height="5.4767" fill="#F6D7B3"/>
    <rect x="71.1976" y="82.1511" width="5.4767" height="5.4767" fill="#BBE90B"/>
    <rect x="0.0000" y="87.6278" width="5.4767" height="5.4767" fill="#F6D7B3"/>
    <rect x="5.4767" y="87.6278" width="5.4767" height="5.4767" fill="#4B9F4A"/>
    <rect x="10.9535" y="87.6278" width="5.4767" height="5.4767" fill="#0055BF"/>
    <rect x="16.4302" y="87.6278" width="5.4767" height="5.4767" fill="#CC8E69"/>
    <rect x="21.9069" y="87.6278" width="5.4767" height="5.4767" fill="#CC8E69"/>
    <rect x="27.3837" y="87.6278" width="5.4767" height="5.4767" fill="#008F9B"/>
    <rect x="32.8604" y="87.6278" width="5.4767" height="5.4767" fill="#5A93DB"/>
    <rect x="38.3372" y="87.6278" width="5.4767" height="5.4767" fill="#81007B"/>
    <rect x="43.8139" y="87.6278" width="5.4767" height="5.4767" fill="#5A93DB"/>
    <rect x="49.2906" y="87.6278" width="5.4767" height="5.4767" fill="#FE8A18"/>
    <rect x="54.7674" y="87.6278" width="5.4767" height="5.4767" fill="#BBE90B"/>
    <rect x="60.2441" y="87.6278" width="5.4767" height="5.4767" fill="#BBE90B"/>
    <rect x="65.7208" y="87.6278" width="5.4767" height="5.4767" fill="#FE8A18"/>
    <rect x="71.1976" y="87.6278" width="5.4767" height="5.4767" fill="#008F9B"/>
  </g>
  <path xmlns="http://www.w3.org/2000/svg" style="fill:#151100;stroke-width:0" d="m 15.610417,51.064592 c 0,28.926294 45.690626,28.926294 45.690626,0 0,13.257884 -45.690626,13.257884 -45.690626,0 z" id="path8-9-2" />
  
  
  
  <circle xmlns="http://www.w3.org/2000/svg" style="fill:#000000;stroke-width:0.264583" id="path2" cx="24.032" cy="35.823162" r="9.6759996" />
  
  
  <circle xmlns="http://www.w3.org/2000/svg" style="fill:#000000;stroke-width:0.264583" id="path2-5" cx="52.641998" cy="35.823162" r="9.6759996" />

</svg>
